<svg width="15" height="29" fill="none" xmlns="http://www.w3.org/2000/svg"><path fill-rule="evenodd" clip-rule="evenodd" d="M6 2.4A6 6 0 0110.5.2H14c.3 0 .6.2.6.5v5.4c0 .3-.3.6-.6.6h-3.5c-.1 0-.3 0-.4.2a1 1 0 00-.2.6V11H14a.6.6 0 01.5.7L13.4 17c0 .3-.3.5-.6.5h-3v10.2c0 .3-.2.6-.5.6H4.7a.6.6 0 01-.6-.6V17.5h-3a.6.6 0 01-.5-.6v-5.4c0-.3.3-.5.6-.5h3V7.5c0-2 .6-3.8 1.8-5.1zm4.5-1.1a5 5 0 00-3.7 1.8 6.8 6.8 0 00-1.6 4.4v4c0 .3-.2.6-.5.6h-3v4.3h3c.3 0 .5.2.5.5v10.3h3.6V16.9c0-.3.2-.5.5-.5h3l1-4.3h-4a.5.5 0 01-.5-.6v-4c0-.5.1-1 .5-1.3.3-.4.7-.6 1.2-.6h3V1.3h-3z" fill="#666"/></svg>