<svg width="23" height="13" fill="none" xmlns="http://www.w3.org/2000/svg"><path d="M0 2c0-.6.5-1 1.3-1h3.3c.2 0 .4.1.4.3.4.9.7 1.7 1.2 2.3A28.6 28.6 0 008 6.1l.2-.1v-.2l.1-3.2c0-.2 0-.4-.2-.4a2 2 0 00-.7-.2c-.2 0-.4-.2-.4-.4v-.1C7.6.7 8.4.3 9.9.3H11c.6 0 1 .1 1.4.3.4.3.5.6.5 1.1V6h.3c.2 0 .4 0 .6-.2a12.7 12.7 0 002.6-4l.5-.4.7-.3h3.8c.3 0 .5.1.6.4l.2.2a1.6 1.6 0 010 .4v.1c0 .5-.3 1-.8 1.6L20 5.6c-.7.6-1 1-1.2 1.3-.2.1-.2.3-.2.4l.1.3 3.2 3.4.3.6c0 .3-.1.5-.4.7-.3.2-.6.3-1 .3h-3.9c-.3 0-.6 0-1-.3a182 182 0 01-2.3-2.4 25.7 25.7 0 00-.4 1.6v.4c-.2.4-.5.6-1 .7H9.7a6 6 0 01-3.6-1.4C5 10.3 3.8 9.2 3 7.7A32.9 32.9 0 010 2zm13.2 4.7c-.3 0-.6 0-.8-.2-.3-.1-.4-.3-.4-.6V1.7c0-.2 0-.4-.2-.5l-.8-.1H9.8a3 3 0 00-1.4.3c.6.2 1 .6 1 1.2v3.2c-.1.3-.2.6-.5.8l-.9.3c-.4 0-.8-.2-1-.5-1-1.5-2-2.8-2.5-4.1l-.2-.5H1v.5l.5 1c1.2 2.7 2.6 4.8 4 6.3s2.9 2.3 4.2 2.3H12l.2-.1.1-.2v-.2l.5-1.6.3-.5.6-.2c.3 0 .7.2 1 .6l2 2s.1.2.3.2h3.6c.4 0 .6-.1.6-.3v-.2L18 8.1c-.2-.3-.4-.5-.4-.8 0-.3.2-.6.4-.9l1-1.2c.6-.5 1.1-1 1.5-1.6l.8-1.3.1-.3v-.2h-3.5c-.2 0-.4.2-.5.3l-.1.4c-.4.8-1.4 2.1-2.9 3.9-.3.2-.7.3-1 .3z" fill="#666"/></svg>